<svg width="71" height="62" viewBox="0 0 71 62" fill="none" xmlns="http://www.w3.org/2000/svg">
<path d="M64.7188 0.0625H6.28125C4.87229 0.0625 3.52103 0.655132 2.52474 1.71002C1.52846 2.76492 0.96875 4.19566 0.96875 5.6875V56.3125C0.96875 57.8043 1.52846 59.2351 2.52474 60.29C3.52103 61.3449 4.87229 61.9375 6.28125 61.9375H10.7271C11.2299 61.9377 11.7223 61.7868 12.1473 61.5024C12.5722 61.218 12.9122 60.8117 13.1277 60.3309C14.4194 57.4434 16.4587 55.0035 19.0085 53.295C21.5583 51.5864 24.5138 50.6794 27.5312 50.6794C30.5487 50.6794 33.5042 51.5864 36.054 53.295C38.6038 55.0035 40.6431 57.4434 41.9348 60.3309C42.1503 60.8117 42.4903 61.218 42.9152 61.5024C43.3402 61.7868 43.8326 61.9377 44.3354 61.9375H64.7188C66.1277 61.9375 67.479 61.3449 68.4753 60.29C69.4715 59.2351 70.0312 57.8043 70.0312 56.3125V5.6875C70.0312 4.19566 69.4715 2.76492 68.4753 1.71002C67.479 0.655132 66.1277 0.0625 64.7188 0.0625ZM27.5312 45.0625C25.4298 45.0625 23.3756 44.4027 21.6283 43.1665C19.881 41.9304 18.5192 40.1734 17.715 38.1177C16.9108 36.062 16.7004 33.8 17.1104 31.6177C17.5204 29.4354 18.5323 27.4309 20.0182 25.8575C21.5042 24.2842 23.3974 23.2127 25.4584 22.7787C27.5195 22.3446 29.6558 22.5674 31.5973 23.4189C33.5387 24.2703 35.1981 25.7123 36.3656 27.5623C37.5331 29.4124 38.1562 31.5875 38.1562 33.8125C38.1562 36.7962 37.0368 39.6577 35.0443 41.7674C33.0517 43.8772 30.3492 45.0625 27.5312 45.0625ZM64.7188 56.3125H45.9357C44.7777 54.1984 43.3019 52.2985 41.5662 50.6875H56.75C57.4545 50.6875 58.1301 50.3912 58.6283 49.8637C59.1264 49.3363 59.4062 48.6209 59.4062 47.875V14.125C59.4062 13.3791 59.1264 12.6637 58.6283 12.1363C58.1301 11.6088 57.4545 11.3125 56.75 11.3125H14.25C13.5455 11.3125 12.8699 11.6088 12.3717 12.1363C11.8736 12.6637 11.5938 13.3791 11.5938 14.125V47.875C11.5935 48.4988 11.789 49.1049 12.1496 49.5982C12.5103 50.0914 13.0155 50.4437 13.5859 50.5996C11.8103 52.2285 10.3033 54.1593 9.12676 56.3125H6.28125V5.6875H64.7188V56.3125Z" fill="#800054"/>
</svg>
