<svg width="64" height="64" viewBox="0 0 64 64" fill="none" xmlns="http://www.w3.org/2000/svg">
<circle cx="32" cy="32" r="32" fill="#FF8503"/>
<path d="M22.16 26.14C22.36 24.7533 22.7467 23.54 23.32 22.5C23.8933 21.4467 24.6067 20.5733 25.46 19.88C26.3267 19.1733 27.3133 18.6467 28.42 18.3C29.54 17.94 30.74 17.76 32.02 17.76C33.3533 17.76 34.5533 17.9533 35.62 18.34C36.7 18.7133 37.62 19.24 38.38 19.92C39.14 20.5867 39.72 21.3733 40.12 22.28C40.5333 23.1867 40.74 24.1667 40.74 25.22C40.74 26.14 40.6333 26.9533 40.42 27.66C40.22 28.3533 39.9267 28.96 39.54 29.48C39.1533 30 38.6733 30.44 38.1 30.8C37.5267 31.16 36.88 31.46 36.16 31.7C37.8933 32.2467 39.1867 33.08 40.04 34.2C40.8933 35.32 41.32 36.7267 41.32 38.42C41.32 39.86 41.0533 41.1333 40.52 42.24C39.9867 43.3467 39.2667 44.28 38.36 45.04C37.4533 45.7867 36.4 46.3533 35.2 46.74C34.0133 47.1267 32.7533 47.32 31.42 47.32C29.9667 47.32 28.7 47.1533 27.62 46.82C26.54 46.4867 25.6 45.9933 24.8 45.34C24 44.6867 23.32 43.8867 22.76 42.94C22.2 41.9933 21.72 40.9 21.32 39.66L23.5 38.76C24.0733 38.52 24.6067 38.46 25.1 38.58C25.6067 38.6867 25.9733 38.9533 26.2 39.38C26.44 39.8467 26.7 40.3067 26.98 40.76C27.2733 41.2133 27.62 41.62 28.02 41.98C28.42 42.3267 28.8867 42.6133 29.42 42.84C29.9667 43.0533 30.6133 43.16 31.36 43.16C32.2 43.16 32.9333 43.0267 33.56 42.76C34.1867 42.48 34.7067 42.12 35.12 41.68C35.5467 41.24 35.86 40.7533 36.06 40.22C36.2733 39.6733 36.38 39.1267 36.38 38.58C36.38 37.8867 36.3067 37.26 36.16 36.7C36.0133 36.1267 35.7067 35.64 35.24 35.24C34.7733 34.84 34.1 34.5267 33.22 34.3C32.3533 34.0733 31.1867 33.96 29.72 33.96V30.44C30.9333 30.4267 31.94 30.3133 32.74 30.1C33.54 29.8867 34.1733 29.5933 34.64 29.22C35.12 28.8333 35.4533 28.3733 35.64 27.84C35.8267 27.3067 35.92 26.72 35.92 26.08C35.92 24.72 35.54 23.6867 34.78 22.98C34.02 22.2733 33.0067 21.92 31.74 21.92C31.1533 21.92 30.6133 22.0067 30.12 22.18C29.6267 22.34 29.18 22.5733 28.78 22.88C28.3933 23.1733 28.0667 23.52 27.8 23.92C27.5333 24.32 27.3333 24.76 27.2 25.24C26.9733 25.8533 26.6733 26.26 26.3 26.46C25.94 26.66 25.4267 26.7067 24.76 26.6L22.16 26.14Z" fill="white"/>
</svg>
