<svg width="64" height="64" viewBox="0 0 64 64" fill="none" xmlns="http://www.w3.org/2000/svg">
<circle cx="32" cy="32" r="32" fill="#FF8503"/>
<path d="M39.62 42.4C40.1533 42.4 40.5733 42.5533 40.88 42.86C41.2 43.1533 41.36 43.5467 41.36 44.04V47H21.52V45.36C21.52 45.0267 21.5867 44.68 21.72 44.32C21.8667 43.9467 22.0933 43.6133 22.4 43.32L31.18 34.52C31.9133 33.7733 32.5667 33.06 33.14 32.38C33.7267 31.7 34.2133 31.0267 34.6 30.36C34.9867 29.6933 35.28 29.02 35.48 28.34C35.6933 27.6467 35.8 26.92 35.8 26.16C35.8 25.4667 35.7 24.86 35.5 24.34C35.3 23.8067 35.0133 23.36 34.64 23C34.28 22.64 33.84 22.3733 33.32 22.2C32.8133 22.0133 32.24 21.92 31.6 21.92C31.0133 21.92 30.4667 22.0067 29.96 22.18C29.4667 22.34 29.0267 22.5733 28.64 22.88C28.2533 23.1733 27.9267 23.52 27.66 23.92C27.3933 24.32 27.1933 24.76 27.06 25.24C26.8333 25.8533 26.54 26.26 26.18 26.46C25.82 26.66 25.3 26.7067 24.62 26.6L22.02 26.14C22.22 24.7533 22.6067 23.54 23.18 22.5C23.7533 21.4467 24.4667 20.5733 25.32 19.88C26.1867 19.1733 27.1733 18.6467 28.28 18.3C29.4 17.94 30.6 17.76 31.88 17.76C33.2133 17.76 34.4333 17.96 35.54 18.36C36.6467 18.7467 37.5933 19.3 38.38 20.02C39.1667 20.74 39.78 21.6067 40.22 22.62C40.66 23.6333 40.88 24.76 40.88 26C40.88 27.0667 40.72 28.0533 40.4 28.96C40.0933 29.8667 39.6733 30.7333 39.14 31.56C38.62 32.3867 38.0067 33.1867 37.3 33.96C36.5933 34.7333 35.8533 35.52 35.08 36.32L28.56 42.98C29.1867 42.7933 29.8067 42.6533 30.42 42.56C31.0467 42.4533 31.64 42.4 32.2 42.4H39.62Z" fill="white"/>
</svg>
