<svg width="20" height="20" viewBox="0 0 20 20" fill="none" xmlns="http://www.w3.org/2000/svg">
<path fill-rule="evenodd" clip-rule="evenodd" d="M1.0625 10.0593C1.0625 5.12328 5.06396 1.12183 10 1.12183C14.936 1.12183 18.9375 5.12328 18.9375 10.0593C18.9375 14.9954 14.936 18.9968 10 18.9968C5.06396 18.9968 1.0625 14.9954 1.0625 10.0593ZM13.3094 8.39643C13.5301 8.08746 13.4586 7.65808 13.1496 7.43738C12.8406 7.21669 12.4113 7.28825 12.1906 7.59723L9.22477 11.7493L7.73614 10.2607C7.46765 9.9922 7.03235 9.9922 6.76386 10.2607C6.49538 10.5292 6.49538 10.9645 6.76386 11.233L8.82636 13.2955C8.96926 13.4384 9.1678 13.5112 9.36921 13.4945C9.57061 13.4778 9.75448 13.3734 9.87194 13.2089L13.3094 8.39643Z" fill="#636363" stroke="white" stroke-width="1.5"/>
</svg>
