<svg width="72" height="61" viewBox="0 0 72 61" fill="none" xmlns="http://www.w3.org/2000/svg">
<path d="M69 0.083252H3C2.20435 0.083252 1.44129 0.403712 0.87868 0.974135C0.316071 1.54456 0 2.31822 0 3.12492L0 57.8749C0 58.6816 0.316071 59.4553 0.87868 60.0257C1.44129 60.5961 2.20435 60.9166 3 60.9166H69C69.7956 60.9166 70.5587 60.5961 71.1213 60.0257C71.6839 59.4553 72 58.6816 72 57.8749V3.12492C72 2.31822 71.6839 1.54456 71.1213 0.974135C70.5587 0.403712 69.7956 0.083252 69 0.083252ZM66 54.8332H60V51.7916H45V54.8332H6V6.16658H66V54.8332ZM30.87 23.5345C30.87 22.155 31.4105 20.8321 32.3725 19.8567C33.3346 18.8812 34.6394 18.3333 36 18.3333C38.85 18.3333 41.13 20.6753 41.13 23.5345C41.13 26.4241 38.85 28.7662 36 28.7662C33.15 28.7662 30.87 26.4241 30.87 23.5345ZM17.13 28.3403C17.13 26.1807 18.87 24.4166 21 24.4166C22.0264 24.4166 23.0107 24.83 23.7365 25.5658C24.4623 26.3017 24.87 27.2997 24.87 28.3403C24.87 30.4999 23.13 32.2337 21 32.2337C18.87 32.2337 17.13 30.4999 17.13 28.3403ZM47.13 28.3403C47.13 27.2997 47.5377 26.3017 48.2635 25.5658C48.9893 24.83 49.9736 24.4166 51 24.4166C52.0264 24.4166 53.0107 24.83 53.7365 25.5658C54.4623 26.3017 54.87 27.2997 54.87 28.3403C54.87 30.4999 53.13 32.2337 51 32.2337C48.87 32.2337 47.13 30.4999 47.13 28.3403ZM60 40.0508V42.6666H12V40.0508C12 37.1916 16.65 34.8495 21 34.8495C22.65 34.8495 24.33 35.1841 25.8 35.762C28.05 33.6632 32.1 32.2337 36 32.2337C39.9 32.2337 43.95 33.6632 46.2 35.762C47.67 35.1841 49.35 34.8495 51 34.8495C55.35 34.8495 60 37.1916 60 40.0508Z" fill="#A500DF"/>
</svg>
