<svg width="106" height="109" viewBox="0 0 106 109" fill="none" xmlns="http://www.w3.org/2000/svg">
<path d="M61.8953 47.404C61.3792 48.6485 60.0085 49.3489 58.6708 48.9892C57.4011 48.6478 56.5792 47.4651 56.647 46.2027C55.6632 46.1528 54.6892 46.1992 53.7345 46.3332C53.8854 47.654 53.0537 48.9221 51.732 49.2753C50.5049 49.6031 49.2455 49.0403 48.646 47.9827C47.9257 48.3639 47.2336 48.8006 46.5812 49.2905C47.3933 50.3615 47.3116 51.8944 46.3365 52.8698C45.4065 53.8 43.9691 53.9181 42.9091 53.222C42.402 54.0032 41.96 54.8382 41.5951 55.7217C42.8955 56.2107 43.6398 57.6169 43.2743 58.9857C42.93 60.2751 41.7167 61.0982 40.432 60.9982C40.4135 61.4328 40.4112 61.865 40.4293 62.2951C40.6854 62.2965 40.938 62.333 41.1782 62.4035C42.0638 62.6632 42.7972 63.3665 43.0542 64.3225C43.4039 65.6238 42.7525 66.9574 41.5722 67.5047C41.9214 68.358 42.3452 69.1789 42.8384 69.9563C43.4963 69.4879 44.3167 69.3462 45.0731 69.5314C45.5427 69.6464 45.9855 69.8878 46.3522 70.2547C47.3691 71.2718 47.4176 72.8907 46.4979 73.9627C47.225 74.5209 48.0066 75.0188 48.8387 75.4461C49.4089 74.3187 50.7101 73.707 51.9797 74.0483C53.3173 74.408 54.1554 75.7025 53.9823 77.0391C54.8107 77.1451 55.6359 77.1841 56.4515 77.1568C56.3684 75.8842 57.1907 74.6889 58.4685 74.3476C58.9234 74.226 59.3831 74.2283 59.8113 74.3317C60.6724 74.5396 61.4058 75.1615 61.7316 76.0313C62.6457 75.6604 63.5223 75.2027 64.3485 74.6667C63.6519 73.6064 63.7684 72.1679 64.6986 71.2375C65.3974 70.5384 66.3831 70.2973 67.2795 70.5168C67.6371 70.6044 67.9809 70.7659 68.2863 70.9999C68.7979 70.3203 69.2567 69.5927 69.6551 68.8226C68.5848 68.2277 68.0118 66.9612 68.3416 65.7261C68.6923 64.4126 69.9455 63.5816 71.2564 63.7187C71.4402 62.3302 71.4308 60.9503 71.2468 59.6083C69.8585 59.8669 68.4809 59.0167 68.108 57.6287C67.7593 56.3312 68.4073 55.0017 69.5814 54.4516C69.1715 53.6772 68.6973 52.9363 68.1627 52.2404C67.0994 52.9753 65.6284 52.8701 64.6806 51.9219C63.7897 51.0308 63.6413 49.6771 64.2365 48.6346C63.5013 48.1637 62.7195 47.7505 61.8951 47.4039L61.8953 47.404ZM57.3171 56.3828C57.4083 56.4073 57.4979 56.4337 57.5869 56.4625C57.9426 56.5778 58.28 56.7273 58.5949 56.9053C58.6736 56.9498 58.7515 56.9961 58.8274 57.0441C58.9793 57.1403 59.1248 57.2431 59.2652 57.3527C59.3354 57.4075 59.4034 57.4643 59.4704 57.5224C59.5039 57.5514 59.538 57.5816 59.5707 57.6114C59.5753 57.6155 59.5794 57.6203 59.584 57.6245C59.6285 57.6651 59.6725 57.7062 59.7156 57.7481C59.763 57.7945 59.8091 57.8403 59.8548 57.8881C59.9766 58.0157 60.093 58.1486 60.2017 58.2868C60.2424 58.3386 60.2826 58.3922 60.3216 58.4454C60.3455 58.4782 60.3701 58.5102 60.3932 58.5434C60.4245 58.5882 60.4533 58.6341 60.4833 58.6798C60.5394 58.7654 60.594 58.8519 60.6451 58.9404C60.678 58.9974 60.7088 59.0556 60.7396 59.1137C60.7402 59.1146 60.7408 59.1155 60.7413 59.1165C60.7555 59.1434 60.7704 59.1701 60.7842 59.1972C60.8196 59.2668 60.8529 59.337 60.8853 59.4081C60.8944 59.4281 60.9035 59.4478 60.9123 59.4678C60.9391 59.5282 60.9653 59.5896 60.9899 59.6509C61.0205 59.7275 61.0491 59.8037 61.0762 59.8817C61.1142 59.9906 61.1499 60.1014 61.1811 60.2128C61.1988 60.2763 61.2145 60.3407 61.23 60.4049C61.2715 60.5767 61.3049 60.7492 61.3296 60.9255C61.3405 61.0027 61.3508 61.0795 61.3583 61.1574C61.3591 61.1654 61.3583 61.1735 61.3591 61.1815C61.3656 61.2515 61.3704 61.3226 61.3742 61.3931C61.3747 61.4028 61.3755 61.4125 61.3759 61.4222C61.3773 61.4501 61.3765 61.4781 61.3774 61.5061C61.3796 61.5748 61.3823 61.6434 61.382 61.7124C61.3818 61.7314 61.3814 61.7504 61.3811 61.7694C61.3803 61.8181 61.3775 61.867 61.3754 61.9158C61.3728 61.976 61.3698 62.0364 61.3652 62.0968C61.365 62.0999 61.3653 62.1031 61.3651 62.1063C61.3647 62.1117 61.3636 62.117 61.3632 62.1224C61.3575 62.1921 61.3514 62.2619 61.3431 62.3317C61.3425 62.3364 61.3423 62.341 61.3417 62.3457C61.3398 62.361 61.3363 62.3761 61.3343 62.3914C61.3259 62.4557 61.3174 62.5199 61.3066 62.5843C61.2932 62.6644 61.2785 62.745 61.2614 62.8251C61.2421 62.9157 61.2198 63.0079 61.1956 63.0984C61.1469 63.2809 61.0906 63.4569 61.0251 63.6298C61.0248 63.6305 61.0248 63.6313 61.0245 63.6321C60.992 63.7178 60.9574 63.8025 60.921 63.8857C60.9207 63.8864 60.9207 63.8872 60.9204 63.8879C60.8839 63.9712 60.845 64.0529 60.8047 64.1335C60.8044 64.1342 60.8044 64.1351 60.8041 64.1358C60.7839 64.1761 60.7627 64.2153 60.7413 64.2549C60.7202 64.2946 60.6983 64.3343 60.6762 64.3733C60.6759 64.374 60.676 64.3749 60.6756 64.3756C60.6317 64.4535 60.5854 64.5304 60.5379 64.6057C60.5375 64.6063 60.5376 64.6073 60.5373 64.6079C60.4418 64.759 60.3384 64.9056 60.2296 65.0452C60.1204 65.1854 60.0055 65.3181 59.884 65.4461C59.8835 65.4466 59.8838 65.4478 59.8834 65.4483C59.7623 65.5758 59.6348 65.6963 59.5026 65.8111C59.5021 65.8115 59.5025 65.8129 59.502 65.8133C59.4361 65.8705 59.3688 65.9247 59.3004 65.9786C59.2999 65.9789 59.3003 65.9804 59.2998 65.9808C59.2313 66.0346 59.1597 66.0859 59.0888 66.1364C59.0883 66.1367 59.0887 66.1382 59.0882 66.1386C58.8031 66.3415 58.4985 66.5173 58.18 66.6625C57.861 66.8079 57.5276 66.9231 57.1841 67.0054C57.0124 67.0466 56.8378 67.0791 56.6617 67.1035C56.4855 67.1279 56.3082 67.144 56.1288 67.151C56.0391 67.1545 55.9485 67.1556 55.8582 67.1546C55.4969 67.1507 55.1302 67.111 54.7646 67.0323C54.6733 67.0126 54.5825 66.9905 54.4913 66.9659C54.4 66.9414 54.3104 66.9151 54.2215 66.8862C53.8657 66.771 53.5283 66.6214 53.2135 66.4434C53.1347 66.3989 53.0569 66.3526 52.9809 66.3046C52.829 66.2084 52.6835 66.1056 52.5431 65.996C52.4027 65.8865 52.2677 65.7707 52.1395 65.6489C52.0754 65.588 52.0145 65.5244 51.9536 65.4606C51.8926 65.3968 51.8324 65.331 51.7745 65.2645C51.7168 65.198 51.661 65.131 51.6066 65.062C51.4979 64.9238 51.3959 64.7815 51.301 64.6339C51.2538 64.5606 51.209 64.4844 51.1654 64.409C51.1212 64.3326 51.0787 64.2576 51.0382 64.1792C51.038 64.1787 51.0391 64.1775 51.0388 64.1769C50.9986 64.0989 50.9595 64.0205 50.923 63.9406C50.8865 63.8608 50.8511 63.7794 50.8184 63.6978C50.7857 63.6162 50.7555 63.5345 50.7267 63.4513C50.6692 63.285 50.6198 63.1157 50.5783 62.9439C50.5368 62.772 50.5034 62.5995 50.4787 62.4233C50.4786 62.4226 50.4794 62.4217 50.4793 62.421C50.467 62.3336 50.4552 62.2455 50.4471 62.1572C50.4471 62.1564 50.4478 62.1557 50.4477 62.1549C50.4397 62.0659 50.4344 61.9777 50.4307 61.888C50.4271 61.8001 50.4264 61.7129 50.4271 61.6246C50.4271 61.6182 50.4273 61.6119 50.4274 61.6056C50.4283 61.5252 50.4307 61.4426 50.4352 61.362C50.4363 61.3417 50.4381 61.3214 50.4395 61.3011C50.4433 61.2441 50.4461 61.1874 50.4517 61.1302C50.4545 61.1016 50.4571 61.0729 50.4603 61.0443C50.4606 61.042 50.4619 61.0399 50.4621 61.0376C50.4708 60.9623 50.4817 60.8877 50.4937 60.8123C50.4957 60.7993 50.4971 60.7863 50.4993 60.7733C50.5121 60.6963 50.5281 60.6191 50.5443 60.5421C50.5456 60.536 50.5456 60.5298 50.5469 60.5237C50.5664 60.4323 50.5883 60.3416 50.6127 60.2503C50.6371 60.1591 50.6632 60.0695 50.6919 59.9806C50.7201 59.8925 50.7506 59.805 50.7832 59.7189C50.7835 59.7182 50.7835 59.7174 50.7838 59.7167C50.8163 59.6309 50.8509 59.5463 50.8873 59.463C50.8876 59.4623 50.8876 59.4615 50.8879 59.4608C50.9244 59.3775 50.9634 59.2959 51.0036 59.2152C51.0039 59.2145 51.0039 59.2136 51.0042 59.2129C51.0445 59.1323 51.0881 59.0534 51.1321 58.9754C51.1324 58.9747 51.1323 58.9738 51.1327 58.9731C51.1766 58.8951 51.223 58.8183 51.2705 58.743C51.2708 58.7424 51.2707 58.7414 51.2711 58.7408C51.3189 58.6649 51.3675 58.5912 51.4188 58.5181C51.4572 58.4634 51.4979 58.4101 51.5382 58.357C51.5427 58.351 51.5478 58.3454 51.5524 58.3394C51.5721 58.3136 51.5911 58.2875 51.6112 58.2621C51.6423 58.2231 51.6743 58.1851 51.7064 58.147C51.7284 58.1208 51.75 58.095 51.7725 58.0693C51.8218 58.0128 51.8727 57.957 51.9243 57.9026C51.9248 57.9021 51.9245 57.9009 51.9249 57.9004C51.9857 57.8364 52.047 57.775 52.1107 57.7142C52.1748 57.6529 52.2395 57.5934 52.3063 57.5354C52.3722 57.4782 52.4395 57.424 52.5079 57.3701C52.5084 57.3698 52.5081 57.3683 52.5085 57.3679C52.577 57.3141 52.6486 57.2628 52.7195 57.2123C52.72 57.212 52.7196 57.2104 52.7201 57.2101C52.7915 57.1593 52.8645 57.1109 52.9382 57.0636C53.1592 56.9216 53.389 56.7953 53.6283 56.6862C53.9473 56.5408 54.2807 56.4256 54.6242 56.3433C54.7959 56.3021 54.9705 56.2697 55.1467 56.2452C55.3228 56.2208 55.5001 56.2047 55.6795 56.1977C55.7692 56.1942 55.8598 56.1931 55.9501 56.1941C56.3114 56.198 56.6782 56.2377 57.0437 56.3164C57.1351 56.3361 57.2258 56.3582 57.3171 56.3828Z" fill="#265F93"/>
<path opacity="0.794" d="M59.1582 49.4851C52.4282 47.6754 45.509 51.6688 43.7119 58.3972C41.9154 65.1255 45.9184 72.0534 52.6485 73.8624C59.3785 75.6721 66.2993 71.6815 68.0962 64.9531C69.8928 58.2248 65.8881 51.2941 59.1579 49.485L59.1582 49.4851ZM57.3188 56.3832C57.4101 56.4078 57.4997 56.4341 57.5886 56.4629C57.9444 56.5782 58.2818 56.7277 58.5966 56.9057C58.6754 56.9502 58.7532 56.9965 58.8292 57.0446C58.9811 57.1407 59.1266 57.2436 59.267 57.3531C59.4776 57.5174 59.6737 57.6973 59.8565 57.8886C59.9784 58.0162 60.0947 58.149 60.2034 58.2872C60.3665 58.4944 60.5153 58.713 60.6469 58.9408C60.9102 59.3967 61.1074 59.8896 61.2318 60.4053C61.2732 60.5772 61.3067 60.7497 61.3314 60.9259C61.4182 61.5435 61.3998 62.1852 61.2632 62.8255C61.2439 62.9161 61.2216 63.0083 61.1974 63.0988C61.1487 63.2814 61.0924 63.4573 61.0269 63.6303C61.0266 63.631 61.0266 63.6318 61.0263 63.6325C60.9937 63.7182 60.9592 63.8029 60.9228 63.8861C60.9225 63.8868 60.9225 63.8877 60.9222 63.8884C60.8857 63.9716 60.8468 64.0533 60.8065 64.134C60.8061 64.1346 60.8062 64.1355 60.8059 64.1362C60.7656 64.2168 60.722 64.2957 60.678 64.3738C60.6777 64.3744 60.6778 64.3753 60.6774 64.376C60.6334 64.454 60.5871 64.5309 60.5396 64.6061C60.5392 64.6067 60.5394 64.6077 60.539 64.6083C60.3477 64.9112 60.1283 65.191 59.8858 65.4465C59.8853 65.447 59.8856 65.4482 59.8852 65.4487C59.764 65.5762 59.6366 65.6968 59.5044 65.8115C59.5039 65.8119 59.5043 65.8133 59.5038 65.8137C59.4379 65.8709 59.3706 65.9251 59.3022 65.979C59.3017 65.9794 59.3021 65.9808 59.3016 65.9812C59.2331 66.0351 59.1615 66.0863 59.0906 66.1368C59.0901 66.1371 59.0905 66.1387 59.09 66.139C58.9477 66.2403 58.8008 66.3341 58.6496 66.4213C58.5732 66.4654 58.4962 66.5071 58.4178 66.5475C58.34 66.5876 58.2615 66.6266 58.1818 66.6629C57.8628 66.8083 57.5294 66.9235 57.1859 67.0058C57.0142 67.047 56.8396 67.0795 56.6634 67.1039C56.4873 67.1283 56.31 67.1444 56.1306 67.1514C56.0409 67.1549 55.9503 67.156 55.86 67.155C55.4987 67.1511 55.132 67.1114 54.7664 67.0327C54.6751 67.013 54.5843 66.9909 54.4931 66.9664C54.4018 66.9418 54.3122 66.9155 54.2232 66.8867C53.8675 66.7714 53.5301 66.6219 53.2152 66.4439C53.1365 66.3994 53.0586 66.353 52.9827 66.305C52.8308 66.2088 52.6853 66.106 52.5449 65.9964C52.3343 65.8322 52.1382 65.6523 51.9554 65.461C51.8335 65.3334 51.7171 65.2005 51.6084 65.0624C51.3906 64.7857 51.2017 64.4898 51.0406 64.1773C51.0004 64.0993 50.9613 64.0209 50.9248 63.941C50.7788 63.6217 50.663 63.2879 50.5801 62.9443C50.5386 62.7724 50.5052 62.5999 50.4805 62.4237C50.4804 62.423 50.4812 62.4222 50.4811 62.4214C50.4688 62.334 50.457 62.2459 50.449 62.1576C50.4489 62.1568 50.4496 62.1561 50.4495 62.1553C50.4415 62.0663 50.4362 61.9781 50.4325 61.8884C50.4142 61.4389 50.4509 60.9816 50.5487 60.5241C50.5682 60.4327 50.5901 60.342 50.6145 60.2507C50.6634 60.0675 50.7197 59.8907 50.7856 59.7171C50.8181 59.6313 50.8527 59.5467 50.8891 59.4634C50.8894 59.4627 50.8894 59.4619 50.8897 59.4612C50.9262 59.378 50.9652 59.2963 51.0054 59.2156C51.0058 59.2149 51.0057 59.214 51.006 59.2134C51.0463 59.1327 51.0899 59.0538 51.1339 58.9758C51.1342 58.9751 51.1341 58.9742 51.1345 58.9736C51.1784 58.8956 51.2248 58.8187 51.2723 58.7434C51.2727 58.7428 51.2725 58.7418 51.2729 58.7412C51.3208 58.6653 51.3693 58.5916 51.4206 58.5185C51.575 58.2989 51.7439 58.0933 51.9267 57.9008C51.9875 57.8368 52.0488 57.7754 52.1125 57.7146C52.1766 57.6533 52.2413 57.5938 52.3082 57.5358C52.374 57.4786 52.4413 57.4244 52.5098 57.3705C52.5102 57.3702 52.5099 57.3687 52.5104 57.3683C52.5788 57.3145 52.6504 57.2632 52.7213 57.2127C52.7218 57.2124 52.7214 57.2109 52.7219 57.2105C52.7933 57.1597 52.8663 57.1113 52.94 57.064C53.0137 57.0167 53.0865 56.9719 53.1624 56.9282C53.2387 56.8841 53.3157 56.8424 53.3941 56.802C53.472 56.7619 53.5504 56.723 53.6301 56.6866C53.9491 56.5412 54.2826 56.426 54.626 56.3437C54.7977 56.3025 54.9723 56.27 55.1485 56.2456C55.3246 56.2212 55.5019 56.2051 55.6814 56.1981C55.7711 56.1946 55.8616 56.1935 55.9519 56.1945C56.3133 56.1984 56.68 56.2381 57.0455 56.3168C57.1369 56.3365 57.2275 56.3587 57.3188 56.3832Z" fill="#342946"/>
<path opacity="0.794" d="M58.7346 51.0733C52.8809 49.4993 46.8625 52.973 45.2998 58.8252C43.7372 64.6775 47.2192 70.7034 53.073 72.2774C58.9266 73.8515 64.9467 70.3805 66.5092 64.5282C68.0718 58.6759 64.5882 52.6473 58.7346 51.0731V51.0733ZM57.3189 56.3844C60.2401 57.1699 61.9771 60.1796 61.1973 63.0999C60.4175 66.0206 57.4142 67.7531 54.493 66.9676C51.5717 66.1821 49.8347 63.1724 50.6145 60.2519C51.3943 57.3313 54.3977 55.5989 57.3189 56.3844Z" fill="url(#paint0_radial_4_1313)"/>
<g opacity="0.588" filter="url(#filter0_f_4_1313)">
<path d="M57.6345 55.1942C54.051 54.2306 50.3677 56.3515 49.4126 59.9285C48.4575 63.5055 50.5901 67.1926 54.1735 68.1561C57.757 69.1197 61.4403 66.9989 62.3954 63.4218L62.396 63.4196C63.3511 59.8425 61.2179 56.1577 57.6345 55.1942ZM57.2426 56.6617C60.0196 57.4084 61.6737 60.261 60.9345 63.029C60.1954 65.7971 57.3423 67.4354 54.5653 66.6886C51.7883 65.9418 50.1343 63.0893 50.8735 60.3212C51.6126 57.5532 54.4656 55.9149 57.2426 56.6617Z" fill="black"/>
</g>
<path d="M57.5962 55.3359C54.1013 54.3961 50.5066 56.4731 49.5723 59.9722C48.638 63.4713 50.7157 67.0759 54.2106 68.0156C57.7055 68.9554 61.3003 66.8784 62.2345 63.3793L62.2351 63.3771C63.1694 59.878 61.0911 56.2756 57.5962 55.3359ZM57.2129 56.7714C59.9214 57.4997 61.5328 60.2884 60.8097 62.9962C60.0867 65.704 57.3023 67.3084 54.5939 66.58C51.8854 65.8517 50.274 63.0631 50.9971 60.3552C51.7201 57.6474 54.5045 56.043 57.2129 56.7714Z" fill="#265F93"/>
<path d="M31.2661 9.17462C30.9839 11.3064 29.1664 12.9538 26.9652 12.9538C24.8759 12.9538 23.1291 11.4718 22.7156 9.49815C21.1848 9.82893 19.7085 10.304 18.2977 10.9062C19.0707 12.8791 18.3137 15.1781 16.4293 16.2699C14.6795 17.2836 12.5153 16.9382 11.1612 15.5567C10.2117 16.4427 9.32805 17.4025 8.52721 18.4279C10.213 19.7418 10.7162 22.1382 9.6189 24.0453C8.57237 25.8644 6.4139 26.6421 4.50113 26.0085C4.04273 27.4226 3.70643 28.8923 3.50836 30.4054C5.70543 30.6201 7.42449 32.4787 7.42449 34.7397C7.42449 36.8695 5.89913 38.6408 3.88562 39.0188C4.03544 39.6965 4.20911 40.3634 4.41315 41.0188C4.807 40.9147 5.20975 40.8665 5.60743 40.8755C7.07368 40.9087 8.48813 41.6886 9.27456 43.0555C10.345 44.9161 9.89161 47.241 8.30375 48.5737C9.18974 49.744 10.1769 50.8334 11.2528 51.8272C12.0709 50.8327 13.2725 50.2743 14.5096 50.2464C15.2777 50.229 16.0564 50.4175 16.7699 50.8309C18.7483 51.9771 19.4863 54.4519 18.5137 56.485C19.8589 57.044 21.263 57.4872 22.7156 57.8012C23.129 55.8275 24.8759 54.3455 26.9652 54.3455C29.1663 54.3455 30.9838 55.9929 31.2661 58.1247C32.5814 57.9448 33.8644 57.6629 35.1053 57.2828C34.4561 55.3561 35.2285 53.1732 37.0505 52.1176C37.6992 51.7418 38.4059 51.5548 39.1057 51.5367C40.5129 51.5002 41.894 52.1547 42.7509 53.3601C44.0022 52.4099 45.1603 51.3411 46.2092 50.1727C44.705 48.8275 44.294 46.5624 45.3408 44.7429C46.1272 43.376 47.5417 42.596 49.0079 42.5629C49.5929 42.5497 50.1869 42.6561 50.7517 42.89C51.2585 41.6309 51.6648 40.3195 51.9607 38.9675C50.0735 38.4941 48.6745 36.7796 48.6745 34.7397C48.6745 32.5702 50.258 30.7702 52.3269 30.4384C52.04 28.2224 51.4599 26.0995 50.6271 24.1078C48.6017 25.0817 46.1381 24.3422 44.9965 22.3579C43.9293 20.5028 44.379 18.1852 45.9563 16.8508C45.0094 15.8274 43.9778 14.8818 42.8718 14.0311C41.5404 15.6043 39.2389 16.0517 37.395 14.9833C35.6618 13.9792 34.8791 11.9546 35.3654 10.1012C34.0436 9.68004 32.6738 9.36718 31.2661 9.17462ZM27.9177 24.9099C28.068 24.9099 28.2163 24.9133 28.3647 24.9209C28.9581 24.9511 29.5375 25.0417 30.0937 25.1857C30.2329 25.2215 30.3714 25.2606 30.5078 25.3033C30.7804 25.3885 31.0459 25.4868 31.3064 25.5973C31.4366 25.6527 31.5644 25.7121 31.691 25.7738C31.7544 25.8047 31.8191 25.837 31.8815 25.8695C31.8903 25.8739 31.8985 25.8797 31.9072 25.8841C31.9922 25.9282 32.0766 25.9734 32.1599 26.0202C32.2517 26.0718 32.3412 26.1235 32.4311 26.1782C32.6704 26.3244 32.9035 26.4808 33.1271 26.6488C33.2109 26.7117 33.2946 26.7778 33.3762 26.8436C33.4264 26.8842 33.4773 26.9233 33.5264 26.9649C33.5929 27.021 33.6558 27.0798 33.7206 27.1378C33.8419 27.2464 33.9612 27.3571 34.0759 27.4722C34.1497 27.5465 34.2209 27.6234 34.2921 27.7003C34.2933 27.7015 34.2946 27.7026 34.2958 27.704C34.3286 27.7394 34.3623 27.7744 34.3946 27.8105C34.4776 27.9031 34.5574 27.9974 34.6364 28.0936C34.6586 28.1206 34.6805 28.1472 34.7023 28.1745C34.7682 28.2564 34.8337 28.3401 34.8965 28.4244C34.9748 28.5298 35.05 28.6354 35.1237 28.7442C35.2265 28.8964 35.327 29.0524 35.4203 29.2112C35.4736 29.3015 35.5242 29.3944 35.5742 29.4869C35.7083 29.7346 35.8304 29.9865 35.9406 30.2479C35.989 30.3623 36.0363 30.4766 36.0799 30.5935C36.0843 30.6054 36.0865 30.6183 36.0907 30.6302C36.1294 30.7355 36.166 30.8429 36.2008 30.9501C36.2055 30.9648 36.2106 30.9794 36.2153 30.9942C36.2288 31.0367 36.2391 31.0801 36.2519 31.1229C36.2836 31.2278 36.3159 31.3325 36.3436 31.439C36.3512 31.4683 36.3583 31.4978 36.3655 31.5273C36.3843 31.6026 36.4 31.6792 36.4168 31.7552C36.4375 31.8491 36.4577 31.9432 36.4755 32.0383C36.4764 32.0432 36.4781 32.048 36.4792 32.0529C36.4806 32.0615 36.4812 32.0702 36.4828 32.0787C36.5027 32.1884 36.522 32.2985 36.5377 32.4095C36.5387 32.417 36.5404 32.4243 36.5414 32.4316C36.5448 32.456 36.5455 32.4808 36.5487 32.5051C36.5621 32.6077 36.5755 32.7103 36.5854 32.8139C36.5976 32.9429 36.608 33.0732 36.6146 33.2036C36.6221 33.3513 36.6257 33.5026 36.6257 33.6521C36.6257 33.9537 36.6114 34.2481 36.5817 34.5418C36.5815 34.543 36.5818 34.5443 36.5817 34.5455C36.5668 34.6911 36.5486 34.8358 36.5267 34.9793C36.5265 34.9805 36.527 34.9818 36.5267 34.983C36.5048 35.1263 36.4786 35.2685 36.4498 35.4094C36.4496 35.4106 36.45 35.4119 36.4498 35.4131C36.4353 35.4836 36.4189 35.5529 36.4022 35.6227C36.3861 35.6926 36.3687 35.7629 36.3509 35.8321C36.3506 35.8333 36.3512 35.8348 36.3509 35.8358C36.3153 35.9743 36.2758 36.112 36.2337 36.2476C36.2333 36.2488 36.234 36.2501 36.2337 36.2513C36.149 36.5238 36.0504 36.7924 35.9406 37.0527C35.8304 37.3141 35.7083 37.5661 35.5742 37.8138C35.5738 37.8146 35.5748 37.8164 35.5742 37.8175C35.4405 38.0641 35.2943 38.3027 35.1382 38.5343C35.1377 38.5351 35.1388 38.5371 35.1382 38.538C35.0606 38.6533 34.9796 38.7649 34.8965 38.8762C34.8959 38.8771 34.8972 38.8791 34.8965 38.8799C34.8135 38.9913 34.7245 39.0999 34.6364 39.2071C34.6358 39.2078 34.637 39.21 34.6364 39.2108C34.2818 39.6416 33.8863 40.0388 33.4568 40.3945C33.0266 40.7508 32.5619 41.0665 32.0684 41.3356C31.8216 41.4702 31.5669 41.5927 31.3064 41.7032C31.0459 41.8138 30.7804 41.9122 30.5078 41.9974C30.3714 42.0399 30.2329 42.079 30.0937 42.115C29.5375 42.2588 28.9581 42.3494 28.3647 42.3797C28.2163 42.3872 28.068 42.3908 27.9177 42.3908C27.7675 42.3908 27.6191 42.3872 27.4709 42.3797C26.8774 42.3494 26.298 42.2588 25.7416 42.115C25.6025 42.079 25.464 42.0399 25.3278 41.9974C25.0551 41.9121 24.7895 41.8139 24.5291 41.7032C24.2687 41.5927 24.0139 41.4702 23.7671 41.3356C23.6437 41.2683 23.5241 41.1955 23.4044 41.1225C23.2847 41.0494 23.1653 40.9729 23.0491 40.8944C22.9332 40.8159 22.8201 40.7357 22.7083 40.6518C22.4849 40.4841 22.2698 40.3068 22.0636 40.1188C21.9611 40.0254 21.8611 39.9266 21.7632 39.8283C21.664 39.7288 21.5681 39.631 21.4739 39.5269C21.4731 39.5262 21.4744 39.5238 21.4739 39.5232C21.38 39.4196 21.2878 39.315 21.1991 39.2071C21.1103 39.0992 21.0226 38.9883 20.9389 38.8762C20.8554 38.764 20.7754 38.6506 20.6971 38.5343C20.5406 38.3019 20.3953 38.0614 20.2612 37.8138C20.127 37.5661 20.0051 37.3142 19.8948 37.0528C19.8944 37.0517 19.8953 37.0501 19.8948 37.0491C19.8402 36.9193 19.7858 36.7884 19.7373 36.6557C19.737 36.6545 19.7377 36.6531 19.7373 36.652C19.6885 36.5182 19.6442 36.3844 19.6018 36.2476C19.5604 36.1137 19.5234 35.9797 19.4883 35.8432C19.4856 35.8335 19.4834 35.8236 19.4809 35.8138C19.4493 35.6897 19.4192 35.5614 19.393 35.4351C19.3864 35.4035 19.3809 35.3715 19.3746 35.3396C19.3571 35.2502 19.3381 35.1616 19.3234 35.0713C19.3159 35.026 19.3081 34.9806 19.3013 34.9352C19.3009 34.9316 19.3019 34.9278 19.3013 34.9241C19.2838 34.8046 19.27 34.685 19.2574 34.5638C19.2553 34.543 19.2521 34.5224 19.2502 34.5014C19.2381 34.3774 19.2312 34.2518 19.2244 34.1263C19.224 34.1165 19.2213 34.1069 19.2207 34.097C19.2132 33.9481 19.2099 33.7993 19.2099 33.6484C19.2099 33.4977 19.2132 33.3488 19.2207 33.2C19.228 33.0526 19.239 32.905 19.2538 32.7589C19.2538 32.7575 19.2537 32.7564 19.2538 32.7552C19.2685 32.6095 19.2869 32.4647 19.3087 32.3214C19.3088 32.3202 19.3086 32.3189 19.3087 32.3177C19.3306 32.1742 19.3569 32.0322 19.3856 31.8911C19.3859 31.89 19.3855 31.8886 19.3856 31.8876C19.4144 31.7465 19.4492 31.6069 19.4846 31.4684C19.4849 31.4672 19.4843 31.4659 19.4846 31.4647C19.5201 31.3263 19.5598 31.1887 19.6018 31.0529C19.6021 31.0519 19.6014 31.0504 19.6018 31.0494C19.6442 30.9126 19.6885 30.7787 19.7373 30.645C19.7739 30.5446 19.8145 30.4457 19.8545 30.3471C19.8591 30.3359 19.8647 30.3253 19.8692 30.3141C19.8889 30.2662 19.9073 30.2181 19.9279 30.1708C19.9595 30.0977 19.9932 30.0258 20.0267 29.9538C20.0498 29.9045 20.0725 29.8556 20.0963 29.8068C20.149 29.6992 20.2043 29.592 20.2612 29.4869C20.2618 29.4859 20.2607 29.4841 20.2612 29.4832C20.3283 29.3594 20.3972 29.2394 20.47 29.1193C20.5433 28.9982 20.6183 28.8797 20.6971 28.7627C20.7749 28.6473 20.856 28.5358 20.9389 28.4244C20.9395 28.4236 20.9383 28.4216 20.9389 28.4208C21.022 28.3094 21.1109 28.2008 21.1991 28.0936C21.1997 28.0929 21.1985 28.0907 21.1991 28.0899C21.2878 27.982 21.38 27.8772 21.4739 27.7738C21.7549 27.4632 22.056 27.1733 22.3787 26.9062C22.8087 26.5499 23.2735 26.2342 23.7671 25.965C24.0139 25.8304 24.2687 25.708 24.5291 25.5973C24.7895 25.4868 25.0551 25.3885 25.3278 25.3033C25.464 25.2606 25.6025 25.2215 25.7417 25.1857C26.2981 25.0419 26.8774 24.9511 27.4709 24.9209C27.6191 24.9133 27.7675 24.9099 27.9177 24.9099Z" fill="#265F93"/>
<path opacity="0.794" d="M27.9156 13.5163C16.8409 13.5163 7.85402 22.5377 7.85402 33.6515C7.85402 44.7653 16.8401 53.7837 27.9156 53.7837C38.9904 53.7837 47.9802 44.766 47.9802 33.6515C47.9802 22.5377 38.9905 13.5163 27.9156 13.5163ZM27.9193 24.9092C28.0695 24.9092 28.2179 24.9126 28.3661 24.9201C28.9596 24.9503 29.5389 25.041 30.0953 25.1849C30.2345 25.2207 30.373 25.2599 30.5092 25.3025C30.7819 25.3877 31.0475 25.486 31.3079 25.5965C31.6985 25.7624 32.0734 25.9584 32.4326 26.1775C32.672 26.3236 32.9051 26.48 33.1287 26.648C33.4639 26.8997 33.7819 27.1749 34.0775 27.4715C34.6685 28.0649 35.1735 28.7429 35.5758 29.4862C35.7099 29.7338 35.8319 29.9858 35.9422 30.2472C36.3286 31.163 36.5634 32.1594 36.6162 33.2028C36.6236 33.3505 36.6271 33.5018 36.6271 33.6513C36.6271 33.9529 36.613 34.2473 36.5832 34.5411C36.5832 34.5422 36.5833 34.5436 36.5832 34.5447C36.5684 34.6903 36.5501 34.8351 36.5283 34.9785C36.5281 34.9797 36.5284 34.981 36.5283 34.9822C36.5064 35.1255 36.4801 35.2677 36.4514 35.4086C36.4511 35.4098 36.4515 35.4111 36.4514 35.4123C36.4225 35.5533 36.388 35.6931 36.3524 35.8313C36.3521 35.8325 36.3527 35.834 36.3524 35.835C36.3168 35.9735 36.2772 36.1112 36.2352 36.2468C36.2349 36.248 36.2356 36.2493 36.2352 36.2505C36.0656 36.7965 35.8435 37.3187 35.5758 37.813C35.5752 37.8139 35.5763 37.8156 35.5758 37.8167C35.4421 38.0633 35.2958 38.302 35.1399 38.5336C35.1393 38.5343 35.1405 38.5364 35.1399 38.5372C35.0621 38.6525 34.981 38.7641 34.8981 38.8754C34.8975 38.8763 34.8987 38.8783 34.8981 38.8791C34.815 38.9905 34.7261 39.0992 34.6379 39.2063C34.6373 39.207 34.6386 39.2093 34.6379 39.21C34.4609 39.4251 34.2739 39.6305 34.0775 39.8275C33.9784 39.927 33.8772 40.0234 33.7734 40.118C33.6702 40.212 33.5658 40.3047 33.4583 40.3937C33.0282 40.75 32.5635 41.0657 32.0699 41.3348C31.8231 41.4694 31.5683 41.5919 31.3079 41.7025C31.0475 41.813 30.7819 41.9115 30.5092 41.9966C30.373 42.0391 30.2345 42.0783 30.0953 42.1143C29.5389 42.258 28.9596 42.3487 28.3661 42.3789C28.2179 42.3864 28.0695 42.39 27.9193 42.39C27.769 42.39 27.6207 42.3864 27.4723 42.3789C26.8789 42.3487 26.2995 42.258 25.7433 42.1143C25.6041 42.0783 25.4656 42.0391 25.3292 41.9966C25.0566 41.9113 24.7911 41.8132 24.5306 41.7025C24.14 41.5366 23.7651 41.3407 23.4059 41.1217C23.1666 40.9756 22.9335 40.819 22.7099 40.651C22.262 40.3149 21.8507 39.9372 21.4753 39.5225C21.3816 39.4189 21.2893 39.3142 21.2006 39.2063C20.8455 38.7746 20.5309 38.3082 20.2628 37.813C20.1287 37.5653 20.0066 37.3134 19.8964 37.052C19.896 37.051 19.8969 37.0493 19.8964 37.0483C19.8417 36.9186 19.7874 36.7876 19.7389 36.6549C19.7385 36.6538 19.7392 36.6523 19.7389 36.6513C19.6901 36.5174 19.6458 36.3837 19.6033 36.2468C19.3909 35.5617 19.2597 34.8419 19.2224 34.0962C19.2149 33.9473 19.2113 33.7985 19.2113 33.6477C19.2113 33.3449 19.2253 33.0492 19.2553 32.7544C19.27 32.6087 19.2884 32.4639 19.3103 32.3206C19.3105 32.3194 19.31 32.3181 19.3103 32.3169C19.3321 32.1735 19.3584 32.0315 19.3872 31.8904C19.3874 31.8892 19.3869 31.8879 19.3872 31.8868C19.4159 31.7457 19.4506 31.6061 19.4861 31.4676C19.4864 31.4665 19.4858 31.4651 19.4861 31.464C19.5217 31.3255 19.5612 31.188 19.6033 31.0522C19.6037 31.0511 19.603 31.0497 19.6033 31.0486C19.6458 30.9118 19.6901 30.7779 19.7389 30.6442C19.8858 30.2417 20.061 29.8547 20.2628 29.4825C20.3297 29.3586 20.3988 29.2386 20.4715 29.1185C20.5449 28.9975 20.6198 28.8789 20.6987 28.7619C20.7764 28.6465 20.8574 28.535 20.9405 28.4236C20.941 28.4229 20.94 28.4208 20.9405 28.4201C21.0235 28.3086 21.1125 28.2 21.2006 28.0928C21.2012 28.0921 21.2 28.0899 21.2006 28.0891C21.2893 27.9813 21.3816 27.8765 21.4753 27.773C21.569 27.6695 21.6626 27.5703 21.7611 27.4715C21.8602 27.372 21.9614 27.2757 22.0651 27.1811C22.1682 27.087 22.2726 26.9944 22.3802 26.9054C22.8104 26.5491 23.2751 26.2334 23.7686 25.9642C24.0154 25.8296 24.2701 25.7072 24.5306 25.5965C24.7911 25.486 25.0566 25.3877 25.3292 25.3025C25.4656 25.2599 25.6041 25.2207 25.7433 25.1849C26.2995 25.0411 26.8789 24.9503 27.4723 24.9201C27.6207 24.9126 27.769 24.9092 27.9193 24.9092Z" fill="#342946"/>
<path opacity="0.794" d="M27.9156 16.1371C18.283 16.1371 10.4662 23.9845 10.4662 33.651C10.4662 43.3175 18.2824 51.1619 27.9156 51.1619C37.5482 51.1619 45.3681 43.3181 45.3681 33.651C45.3681 23.9845 37.5482 16.1371 27.9156 16.1371ZM27.9193 24.9088C32.7263 24.9088 36.6271 28.827 36.6271 33.651C36.6271 38.475 32.7263 42.3896 27.9193 42.3896C23.1122 42.3896 19.2113 38.4713 19.2113 33.6473C19.2113 28.8233 23.1122 24.9088 27.9193 24.9088Z" fill="url(#paint1_radial_4_1313)"/>
<g opacity="0.588" filter="url(#filter1_f_4_1313)">
<path d="M27.9186 22.9442C22.0219 22.9442 17.2361 27.7391 17.2361 33.6474C17.2361 39.5557 22.0219 44.3544 27.9186 44.3544C33.8154 44.3544 38.6011 39.5595 38.6011 33.6512V33.6474C38.6011 27.7391 33.8154 22.9442 27.9186 22.9442ZM27.9186 25.3682C32.4883 25.3682 36.1972 29.0789 36.1972 33.6512C36.1972 38.2233 32.4883 41.9304 27.9186 41.9304C23.3488 41.9304 19.6401 38.2196 19.6401 33.6474C19.6401 29.0752 23.3488 25.3682 27.9186 25.3682Z" fill="black"/>
</g>
<path d="M27.9186 23.1774C22.1675 23.1774 17.4999 27.8679 17.4999 33.6475C17.4999 39.4273 22.1675 44.1213 27.9186 44.1213C33.6698 44.1213 38.3374 39.431 38.3374 33.6512V33.6475C38.3374 27.8679 33.6698 23.1774 27.9186 23.1774ZM27.9186 25.5487C32.3755 25.5487 35.9928 29.1786 35.9928 33.6512C35.9928 38.1238 32.3755 41.7502 27.9186 41.7502C23.4616 41.7502 19.8445 38.1202 19.8445 33.6475C19.8445 29.1749 23.4616 25.5487 27.9186 25.5487Z" fill="#265F93"/>
<path d="M58.5464 6.45705C58.2284 7.22373 57.3839 7.65523 56.5599 7.43364C55.7777 7.22331 55.2713 6.49473 55.3131 5.71694C54.707 5.6862 54.107 5.71477 53.5189 5.79733C53.6119 6.61101 53.0995 7.39227 52.2853 7.60983C51.5293 7.81178 50.7534 7.46509 50.3841 6.81351C49.9404 7.04837 49.514 7.31742 49.1121 7.61923C49.6124 8.27899 49.5621 9.22331 48.9614 9.82433C48.3884 10.3974 47.5029 10.4702 46.8499 10.0413C46.5375 10.5226 46.2652 11.037 46.0404 11.5814C46.8415 11.8826 47.3 12.7489 47.0748 13.5922C46.8627 14.3866 46.1153 14.8936 45.3239 14.832C45.3125 15.0998 45.3111 15.366 45.3222 15.631C45.48 15.6318 45.6356 15.6544 45.7836 15.6977C46.3292 15.8577 46.781 16.291 46.9393 16.88C47.1548 17.6817 46.7535 18.5033 46.0264 18.8404C46.2415 19.3661 46.5026 19.8718 46.8064 20.3507C47.2117 20.0622 47.7171 19.9749 48.1831 20.089C48.4723 20.1598 48.7451 20.3085 48.9711 20.5345C49.5975 21.1612 49.6274 22.1586 49.0608 22.8189C49.5087 23.1628 49.9903 23.4695 50.5028 23.7328C50.8541 23.0383 51.6557 22.6614 52.438 22.8717C53.262 23.0933 53.7783 23.8907 53.6717 24.7141C54.1821 24.7794 54.6905 24.8035 55.1928 24.7866C55.1417 24.0027 55.6482 23.2662 56.4355 23.0559C56.7157 22.981 56.9989 22.9825 57.2627 23.0462C57.7932 23.1742 58.245 23.5573 58.4458 24.0932C59.0089 23.8647 59.5489 23.5827 60.0579 23.2525C59.6288 22.5993 59.7005 21.7131 60.2736 21.14C60.7041 20.7093 61.3113 20.5608 61.8635 20.696C62.0838 20.75 62.2956 20.8495 62.4838 20.9936C62.7989 20.575 63.0816 20.1267 63.327 19.6523C62.6677 19.2858 62.3147 18.5055 62.5178 17.7447C62.7339 16.9356 63.5059 16.4237 64.3135 16.5082C64.4267 15.6528 64.421 14.8025 64.3076 13.976C63.4523 14.1353 62.6037 13.6115 62.3739 12.7565C62.1591 11.9572 62.5583 11.1381 63.2817 10.7991C63.0291 10.3221 62.7371 9.86555 62.4077 9.43688C61.7526 9.88962 60.8464 9.82478 60.2625 9.24068C59.7137 8.69173 59.6223 7.85779 59.9889 7.2155C59.536 6.92537 59.0543 6.67084 58.5465 6.45731L58.5464 6.45705ZM55.7258 11.9885C55.7821 12.0037 55.8373 12.0199 55.892 12.0376C56.1112 12.1087 56.3191 12.2008 56.513 12.3104C56.5615 12.3378 56.6095 12.3664 56.6563 12.396C56.7499 12.4552 56.8395 12.5186 56.926 12.5861C56.9692 12.6198 57.0111 12.6548 57.0524 12.6906C57.0731 12.7085 57.094 12.7271 57.1142 12.7454C57.117 12.748 57.1195 12.7509 57.1224 12.7535C57.1498 12.7785 57.1769 12.8038 57.2034 12.8297C57.2326 12.8582 57.261 12.8865 57.2892 12.9159C57.3643 12.9945 57.4359 13.0764 57.5029 13.1615C57.528 13.1934 57.5528 13.2265 57.5768 13.2592C57.5915 13.2794 57.6066 13.2991 57.6209 13.3196C57.6402 13.3472 57.658 13.3755 57.6764 13.4036C57.711 13.4563 57.7446 13.5096 57.7761 13.5642C57.7964 13.5993 57.8153 13.6351 57.8343 13.6709C57.8346 13.6715 57.835 13.6721 57.8353 13.6727C57.8441 13.6892 57.8532 13.7057 57.8618 13.7224C57.8836 13.7653 57.9041 13.8085 57.9241 13.8523C57.9297 13.8646 57.9352 13.8767 57.9407 13.8891C57.9572 13.9263 57.9734 13.9641 57.9885 14.0019C58.0074 14.0491 58.025 14.096 58.0417 14.144C58.0651 14.2111 58.0871 14.2794 58.1063 14.3481C58.1172 14.3871 58.1269 14.4268 58.1364 14.4664C58.162 14.5722 58.1826 14.6785 58.1978 14.7871C58.2045 14.8347 58.2108 14.882 58.2155 14.93C58.216 14.9349 58.2155 14.9399 58.2159 14.9448C58.2199 14.988 58.2229 15.0317 58.2252 15.0752C58.2256 15.0811 58.226 15.0871 58.2263 15.0931C58.2272 15.1103 58.2267 15.1275 58.2272 15.1448C58.2286 15.1871 58.2303 15.2294 58.23 15.2719C58.23 15.2836 58.2297 15.2953 58.2295 15.307C58.229 15.337 58.2273 15.3671 58.226 15.3972C58.2244 15.4343 58.2226 15.4715 58.2197 15.5087C58.2196 15.5106 58.2198 15.5126 58.2196 15.5145C58.2194 15.5179 58.2187 15.5212 58.2184 15.5245C58.215 15.5674 58.2112 15.6104 58.2061 15.6534C58.2057 15.6563 58.2056 15.6592 58.2052 15.662C58.2041 15.6714 58.2019 15.6808 58.2007 15.6902C58.1955 15.7298 58.1903 15.7694 58.1836 15.8091C58.1754 15.8584 58.1663 15.908 58.1558 15.9574C58.1439 16.0132 58.1301 16.07 58.1152 16.1257C58.0852 16.2382 58.0506 16.3466 58.0102 16.4531C58.01 16.4536 58.01 16.4541 58.0098 16.4545C57.9898 16.5073 57.9685 16.5595 57.946 16.6108C57.9459 16.6112 57.9459 16.6117 57.9457 16.6121C57.9232 16.6634 57.8992 16.7138 57.8744 16.7635C57.8742 16.7639 57.8743 16.7644 57.874 16.7648C57.8616 16.7897 57.8485 16.8138 57.8353 16.8382C57.8223 16.8627 57.8088 16.8871 57.7953 16.9112C57.795 16.9116 57.7951 16.9122 57.7949 16.9126C57.7678 16.9606 57.7393 17.008 57.71 17.0543C57.7098 17.0547 57.7099 17.0553 57.7097 17.0557C57.6508 17.1488 57.5871 17.2391 57.5201 17.3251C57.4528 17.4115 57.3821 17.4932 57.3072 17.572C57.3069 17.5724 57.3071 17.5731 57.3068 17.5734C57.2322 17.652 57.1537 17.7262 57.0722 17.7969C57.0719 17.7972 57.0721 17.798 57.0718 17.7983C57.0312 17.8335 56.9898 17.8669 56.9476 17.9001C56.9473 17.9003 56.9476 17.9012 56.9473 17.9015C56.9051 17.9346 56.861 17.9662 56.8173 17.9973C56.817 17.9975 56.8172 17.9985 56.8169 17.9987C56.6413 18.1237 56.4536 18.232 56.2574 18.3214C56.0609 18.411 55.8555 18.482 55.6439 18.5327C55.5381 18.558 55.4306 18.5781 55.322 18.5931C55.2135 18.6081 55.1043 18.6181 54.9938 18.6224C54.9385 18.6245 54.8827 18.6252 54.8271 18.6246C54.6045 18.6222 54.3786 18.5977 54.1534 18.5493C54.0971 18.5371 54.0412 18.5235 53.985 18.5084C53.9287 18.4933 53.8735 18.477 53.8187 18.4593C53.5996 18.3882 53.3917 18.2961 53.1978 18.1865C53.1493 18.1591 53.1013 18.1305 53.0545 18.1009C52.9609 18.0417 52.8713 17.9783 52.7848 17.9108C52.6983 17.8434 52.6151 17.7721 52.5361 17.697C52.4967 17.6595 52.4591 17.6203 52.4216 17.581C52.3841 17.5417 52.3469 17.5011 52.3113 17.4602C52.2757 17.4192 52.2414 17.378 52.2079 17.3354C52.1409 17.2503 52.0781 17.1626 52.0196 17.0717C51.9905 17.0265 51.9629 16.9796 51.936 16.9331C51.9088 16.886 51.8827 16.8399 51.8577 16.7915C51.8576 16.7912 51.8582 16.7905 51.8581 16.7902C51.8333 16.7421 51.8092 16.6938 51.7867 16.6446C51.7642 16.5954 51.7424 16.5453 51.7223 16.495C51.7022 16.4447 51.6835 16.3944 51.6658 16.3431C51.6304 16.2407 51.5999 16.1364 51.5744 16.0305C51.5488 15.9247 51.5282 15.8184 51.513 15.7098C51.5129 15.7094 51.5134 15.7089 51.5134 15.7084C51.5058 15.6546 51.4985 15.6003 51.4936 15.5459C51.4935 15.5454 51.494 15.5449 51.4939 15.5445C51.489 15.4897 51.4857 15.4353 51.4835 15.38C51.4812 15.3259 51.4808 15.2722 51.4812 15.2178C51.4812 15.2139 51.4814 15.21 51.4814 15.2061C51.4819 15.1566 51.4834 15.1057 51.4862 15.056C51.4869 15.0435 51.488 15.031 51.4889 15.0185C51.4912 14.9834 51.4929 14.9485 51.4964 14.9132C51.4981 14.8956 51.4997 14.8779 51.5017 14.8603C51.5019 14.8589 51.5026 14.8576 51.5028 14.8562C51.5082 14.8098 51.5149 14.7638 51.5222 14.7174C51.5235 14.7094 51.5244 14.7013 51.5257 14.6933C51.5336 14.6459 51.5435 14.5984 51.5534 14.5509C51.5542 14.5471 51.5542 14.5433 51.555 14.5396C51.567 14.4833 51.5805 14.4274 51.5955 14.3712C51.6106 14.315 51.6267 14.2598 51.6443 14.205C51.6617 14.1508 51.6805 14.0968 51.7006 14.0438C51.7008 14.0434 51.7008 14.0429 51.701 14.0424C51.721 13.9896 51.7423 13.9375 51.7647 13.8862C51.7649 13.8857 51.7649 13.8852 51.7651 13.8848C51.7876 13.8335 51.8116 13.7832 51.8364 13.7335C51.8366 13.7331 51.8365 13.7325 51.8367 13.7321C51.8616 13.6824 51.8885 13.6338 51.9155 13.5857C51.9157 13.5853 51.9157 13.5848 51.9159 13.5844C51.943 13.5363 51.9715 13.489 52.0008 13.4426C52.001 13.4422 52.0009 13.4416 52.0011 13.4412C52.0306 13.3945 52.0605 13.349 52.0922 13.3041C52.1158 13.2703 52.1409 13.2375 52.1657 13.2048C52.1685 13.2011 52.1716 13.1976 52.1745 13.1939C52.1866 13.1781 52.1983 13.162 52.2107 13.1464C52.2298 13.1223 52.2496 13.0989 52.2693 13.0754C52.2829 13.0593 52.2962 13.0434 52.31 13.0276C52.3405 12.9928 52.3718 12.9584 52.4036 12.9249C52.4039 12.9246 52.4037 12.9238 52.404 12.9235C52.4414 12.8841 52.4792 12.8463 52.5184 12.8088C52.5579 12.771 52.5978 12.7344 52.6389 12.6986C52.6795 12.6634 52.721 12.63 52.7631 12.5968C52.7634 12.5966 52.7632 12.5957 52.7635 12.5955C52.8057 12.5623 52.8498 12.5307 52.8935 12.4996C52.8937 12.4994 52.8935 12.4985 52.8938 12.4982C52.9378 12.4669 52.9828 12.4371 53.0282 12.408C53.1644 12.3205 53.3059 12.2427 53.4533 12.1755C53.6498 12.0859 53.8553 12.015 54.0669 11.9643C54.1726 11.9389 54.2802 11.9189 54.3887 11.9038C54.4972 11.8888 54.6065 11.8789 54.717 11.8745C54.7723 11.8724 54.8281 11.8717 54.8837 11.8723C55.1063 11.8747 55.3322 11.8992 55.5574 11.9477C55.6137 11.9598 55.6696 11.9734 55.7258 11.9885Z" fill="#265F93"/>
<path opacity="0.794" d="M56.8608 7.73923C52.7147 6.62437 48.4522 9.08449 47.3454 13.2295C46.2386 17.3747 48.7047 21.6426 52.8509 22.7574C56.997 23.8722 61.2606 21.4139 62.3673 17.2688C63.4741 13.1237 61.007 8.85403 56.8608 7.73923ZM55.7276 11.9888C55.7839 12.004 55.8391 12.0202 55.8939 12.0379C56.113 12.109 56.3209 12.2011 56.5148 12.3107C56.5633 12.3381 56.6113 12.3667 56.6581 12.3963C56.7517 12.4555 56.8413 12.5189 56.9278 12.5864C57.0575 12.6876 57.1784 12.7984 57.291 12.9162C57.3661 12.9948 57.4378 13.0767 57.5047 13.1618C57.6052 13.2894 57.6968 13.4241 57.7779 13.5645C57.9401 13.8453 58.0616 14.149 58.1382 14.4667C58.1638 14.5726 58.1844 14.6788 58.1996 14.7874C58.2531 15.1679 58.2418 15.5632 58.1576 15.9577C58.1457 16.0135 58.1319 16.0703 58.117 16.1261C58.087 16.2385 58.0524 16.3469 58.012 16.4535C58.0118 16.4539 58.0118 16.4544 58.0116 16.4548C57.9916 16.5077 57.9703 16.5598 57.9479 16.6111C57.9477 16.6115 57.9477 16.6121 57.9475 16.6125C57.925 16.6637 57.901 16.7141 57.8762 16.7638C57.876 16.7642 57.8761 16.7647 57.8758 16.7652C57.851 16.8148 57.8242 16.8635 57.7971 16.9115C57.7969 16.9119 57.7969 16.9125 57.7967 16.9129C57.7696 16.9609 57.7411 17.0083 57.7118 17.0547C57.7116 17.055 57.7117 17.0556 57.7115 17.056C57.5936 17.2426 57.4584 17.415 57.309 17.5724C57.3087 17.5727 57.3089 17.5735 57.3086 17.5738C57.234 17.6523 57.1555 17.7266 57.074 17.7973C57.0737 17.7975 57.074 17.7984 57.0737 17.7986C57.0331 17.8338 56.9916 17.8673 56.9495 17.9004C56.9491 17.9007 56.9494 17.9016 56.9491 17.9018C56.9069 17.935 56.8628 17.9666 56.8191 17.9977C56.8188 17.9979 56.8191 17.9988 56.8188 17.999C56.7311 18.0614 56.6406 18.1192 56.5474 18.173C56.5004 18.2001 56.4529 18.2258 56.4047 18.2507C56.3567 18.2754 56.3084 18.2994 56.2593 18.3218C56.0627 18.4114 55.8573 18.4823 55.6457 18.533C55.5399 18.5584 55.4324 18.5784 55.3238 18.5934C55.2153 18.6085 55.1061 18.6184 54.9956 18.6227C54.9403 18.6249 54.8845 18.6255 54.8289 18.6249C54.6063 18.6225 54.3804 18.5981 54.1552 18.5496C54.0989 18.5375 54.043 18.5238 53.9868 18.5087C53.9305 18.4936 53.8753 18.4774 53.8205 18.4596C53.6014 18.3886 53.3935 18.2965 53.1995 18.1868C53.1511 18.1594 53.1031 18.1309 53.0563 18.1013C52.9627 18.042 52.8731 17.9787 52.7866 17.9112C52.6569 17.81 52.536 17.6992 52.4234 17.5813C52.3483 17.5027 52.2766 17.4209 52.2097 17.3357C52.0755 17.1653 51.9591 16.983 51.8599 16.7905C51.8351 16.7425 51.811 16.6941 51.7885 16.6449C51.6986 16.4482 51.6272 16.2426 51.5761 16.0309C51.5506 15.925 51.53 15.8187 51.5148 15.7102C51.5147 15.7097 51.5152 15.7092 51.5151 15.7088C51.5076 15.6549 51.5003 15.6006 51.4953 15.5462C51.4953 15.5458 51.4958 15.5453 51.4957 15.5449C51.4908 15.49 51.4875 15.4357 51.4852 15.3804C51.4739 15.1035 51.4965 14.8218 51.5568 14.5399C51.5688 14.4836 51.5823 14.4278 51.5973 14.3715C51.6275 14.2586 51.6622 14.1497 51.7028 14.0428C51.7228 13.9899 51.7441 13.9378 51.7665 13.8865C51.7667 13.8861 51.7667 13.8856 51.7669 13.8851C51.7894 13.8338 51.8134 13.7835 51.8382 13.7338C51.8384 13.7334 51.8383 13.7329 51.8385 13.7324C51.8633 13.6827 51.8902 13.6342 51.9173 13.5861C51.9175 13.5857 51.9174 13.5851 51.9177 13.5847C51.9447 13.5367 51.9733 13.4893 52.0026 13.4429C52.0028 13.4426 52.0027 13.442 52.0029 13.4416C52.0324 13.3948 52.0623 13.3494 52.0939 13.3044C52.189 13.1691 52.2931 13.0424 52.4057 12.9238C52.4432 12.8844 52.481 12.8466 52.5202 12.8091C52.5596 12.7714 52.5995 12.7347 52.6407 12.699C52.6813 12.6638 52.7228 12.6304 52.7649 12.5972C52.7652 12.5969 52.765 12.596 52.7653 12.5958C52.8075 12.5626 52.8516 12.5311 52.8952 12.5C52.8955 12.4998 52.8953 12.4988 52.8956 12.4986C52.9396 12.4673 52.9846 12.4375 53.03 12.4083C53.0753 12.3792 53.1202 12.3516 53.167 12.3247C53.214 12.2975 53.2614 12.2718 53.3097 12.2469C53.3577 12.2222 53.406 12.1982 53.4551 12.1758C53.6516 12.0862 53.8571 12.0153 54.0686 11.9646C54.1744 11.9392 54.282 11.9192 54.3905 11.9042C54.499 11.8891 54.6083 11.8792 54.7188 11.8749C54.7741 11.8727 54.8298 11.8721 54.8855 11.8727C55.1081 11.8751 55.334 11.8995 55.5592 11.948C55.6155 11.9601 55.6714 11.9737 55.7276 11.9888Z" fill="#342946"/>
<path opacity="0.794" d="M56.599 8.71678C52.9928 7.74708 49.2851 9.88709 48.3224 13.4924C47.3598 17.0978 49.5049 20.81 53.111 21.7797C56.7172 22.7494 60.4259 20.6111 61.3887 17.0058C62.3513 13.4005 60.2052 9.68649 56.599 8.71678ZM55.7268 11.9887C57.5265 12.4726 58.5966 14.3266 58.1163 16.1259C57.6359 17.9251 55.7857 18.9925 53.986 18.5085C52.1863 18.0246 51.1162 16.1706 51.5966 14.3714C52.077 12.5722 53.9272 11.5047 55.7268 11.9887Z" fill="url(#paint2_radial_4_1313)"/>
<g opacity="0.588" filter="url(#filter2_f_4_1313)">
<path d="M55.9225 11.2557C53.7148 10.6621 51.4457 11.9687 50.8573 14.1724C50.269 16.376 51.5828 18.6475 53.7904 19.2412C55.9981 19.8348 58.2672 18.5282 58.8555 16.3245L58.8559 16.3231C59.4443 14.1195 58.13 11.8493 55.9225 11.2557ZM55.6811 12.1598C57.3919 12.6198 58.4108 14.3771 57.9555 16.0825C57.5002 17.7878 55.7425 18.7971 54.0317 18.337C52.3209 17.877 51.3019 16.1197 51.7573 14.4143C52.2126 12.709 53.9702 11.6997 55.6811 12.1598Z" fill="black"/>
</g>
<path d="M55.8989 11.3428C53.7458 10.7638 51.5313 12.0433 50.9557 14.1991C50.3802 16.3547 51.6601 18.5753 53.8132 19.1544C55.9663 19.7333 58.1809 18.4538 58.7564 16.2981L58.7567 16.2967C59.3323 14.141 58.0519 11.9217 55.8989 11.3428ZM55.6628 12.2272C57.3314 12.6758 58.324 14.3939 57.8787 16.062C57.4333 17.7302 55.7179 18.7185 54.0493 18.2699C52.3807 17.8213 51.3881 16.1032 51.8334 14.4351C52.2788 12.7669 53.9942 11.7786 55.6628 12.2272Z" fill="#265F93"/>
<path d="M105 25.1296H45.8251V108.187H105V25.1296Z" fill="url(#paint3_linear_4_1313)" stroke="url(#paint4_radial_4_1313)" stroke-linecap="round" stroke-linejoin="round"/>
<path d="M99.9798 35.5809C99.9798 34.322 98.9593 33.3015 97.7004 33.3015C96.4416 33.3015 95.4211 34.322 95.4211 35.5809C95.4211 36.8397 96.4416 37.8602 97.7004 37.8602C98.9593 37.8602 99.9798 36.8397 99.9798 35.5809Z" fill="url(#paint5_linear_4_1313)" stroke="#6D4E85" stroke-width="0.5" stroke-linecap="round" stroke-linejoin="round"/>
<path d="M96.5889 35.1363L97.8982 36.4456L101.401 32.9431" fill="url(#paint6_linear_4_1313)"/>
<path d="M96.5889 35.1363L97.8982 36.4456L101.401 32.9431" stroke="#6D4E85" stroke-width="0.5" stroke-linecap="round" stroke-linejoin="round"/>
<path d="M99.9798 44.46C99.9798 43.2012 98.9593 42.1807 97.7004 42.1807C96.4416 42.1807 95.4211 43.2012 95.4211 44.46C95.4211 45.7189 96.4416 46.7394 97.7004 46.7394C98.9593 46.7394 99.9798 45.7189 99.9798 44.46Z" fill="url(#paint7_linear_4_1313)" stroke="#6D4E85" stroke-width="0.5" stroke-linecap="round" stroke-linejoin="round"/>
<path d="M96.5889 44.0155L97.8982 45.3248L101.401 41.8223" fill="url(#paint8_linear_4_1313)"/>
<path d="M96.5889 44.0155L97.8982 45.3248L101.401 41.8223" stroke="#6D4E85" stroke-width="0.5" stroke-linecap="round" stroke-linejoin="round"/>
<path d="M51.6782 35.581H90.7241Z" fill="url(#paint9_linear_4_1313)"/>
<path d="M51.6782 35.581H90.7241" stroke="url(#paint10_radial_4_1313)" stroke-linecap="round" stroke-linejoin="round"/>
<path d="M51.6782 44.4601H85.8937Z" fill="url(#paint11_linear_4_1313)"/>
<path d="M51.6782 44.4601H85.8937" stroke="url(#paint12_radial_4_1313)" stroke-linecap="round" stroke-linejoin="round"/>
<path d="M51.6782 53.3393H86.9679Z" fill="url(#paint13_linear_4_1313)"/>
<path d="M51.6782 53.3393H86.9679" stroke="url(#paint14_radial_4_1313)" stroke-linecap="round" stroke-linejoin="round"/>
<path d="M51.6782 62.2184H89.6522Z" fill="url(#paint15_linear_4_1313)"/>
<path d="M51.6782 62.2184H89.6522" stroke="url(#paint16_radial_4_1313)" stroke-linecap="round" stroke-linejoin="round"/>
<path d="M51.6782 71.0977H90.4573Z" fill="url(#paint17_linear_4_1313)"/>
<path d="M51.6782 71.0977H90.4573" stroke="url(#paint18_radial_4_1313)" stroke-linecap="round" stroke-linejoin="round"/>
<path d="M51.6782 79.9768H90.7241Z" fill="url(#paint19_linear_4_1313)"/>
<path d="M51.6782 79.9768H90.7241" stroke="url(#paint20_radial_4_1313)" stroke-linecap="round" stroke-linejoin="round"/>
<path d="M51.6782 88.856H89.6522Z" fill="url(#paint21_linear_4_1313)"/>
<path d="M51.6782 88.856H89.6522" stroke="url(#paint22_radial_4_1313)" stroke-linecap="round" stroke-linejoin="round"/>
<path d="M51.6782 97.7351H86.2962Z" fill="url(#paint23_linear_4_1313)"/>
<path d="M51.6782 97.7351H86.2962" stroke="url(#paint24_radial_4_1313)" stroke-linecap="round" stroke-linejoin="round"/>
<path d="M99.9798 53.3392C99.9798 52.0804 98.9593 51.0599 97.7004 51.0599C96.4416 51.0599 95.4211 52.0804 95.4211 53.3392C95.4211 54.5981 96.4416 55.6186 97.7004 55.6186C98.9593 55.6186 99.9798 54.5981 99.9798 53.3392Z" fill="url(#paint25_linear_4_1313)" stroke="#6D4E85" stroke-width="0.5" stroke-linecap="round" stroke-linejoin="round"/>
<path d="M96.5889 52.8946L97.8982 54.2039L101.401 50.7014" fill="url(#paint26_linear_4_1313)"/>
<path d="M96.5889 52.8946L97.8982 54.2039L101.401 50.7014" stroke="#6D4E85" stroke-width="0.5" stroke-linecap="round" stroke-linejoin="round"/>
<path d="M99.9798 62.2184C99.9798 60.9595 98.9593 59.939 97.7004 59.939C96.4416 59.939 95.4211 60.9595 95.4211 62.2184C95.4211 63.4772 96.4416 64.4977 97.7004 64.4977C98.9593 64.4977 99.9798 63.4772 99.9798 62.2184Z" fill="url(#paint27_linear_4_1313)" stroke="#6D4E85" stroke-width="0.5" stroke-linecap="round" stroke-linejoin="round"/>
<path d="M99.9798 71.0975C99.9798 69.8387 98.9593 68.8182 97.7004 68.8182C96.4416 68.8182 95.4211 69.8387 95.4211 71.0975C95.4211 72.3564 96.4416 73.3769 97.7004 73.3769C98.9593 73.3769 99.9798 72.3564 99.9798 71.0975Z" fill="url(#paint28_linear_4_1313)" stroke="#6D4E85" stroke-width="0.5" stroke-linecap="round" stroke-linejoin="round"/>
<path d="M99.9798 79.9767C99.9798 78.7178 98.9593 77.6973 97.7004 77.6973C96.4416 77.6973 95.4211 78.7178 95.4211 79.9767C95.4211 81.2355 96.4416 82.256 97.7004 82.256C98.9593 82.256 99.9798 81.2355 99.9798 79.9767Z" fill="url(#paint29_linear_4_1313)" stroke="#6D4E85" stroke-width="0.5" stroke-linecap="round" stroke-linejoin="round"/>
<path d="M96.5889 79.5321L97.8982 80.8414L101.401 77.3389" fill="url(#paint30_linear_4_1313)"/>
<path d="M96.5889 79.5321L97.8982 80.8414L101.401 77.3389" stroke="#6D4E85" stroke-width="0.5" stroke-linecap="round" stroke-linejoin="round"/>
<path d="M99.9798 88.8559C99.9798 87.597 98.9593 86.5765 97.7004 86.5765C96.4416 86.5765 95.4211 87.597 95.4211 88.8559C95.4211 90.1147 96.4416 91.1352 97.7004 91.1352C98.9593 91.1352 99.9798 90.1147 99.9798 88.8559Z" fill="url(#paint31_linear_4_1313)" stroke="#6D4E85" stroke-width="0.5" stroke-linecap="round" stroke-linejoin="round"/>
<path d="M96.5889 88.4113L97.8982 89.7206L101.401 86.2181" fill="url(#paint32_linear_4_1313)"/>
<path d="M96.5889 88.4113L97.8982 89.7206L101.401 86.2181" stroke="#6D4E85" stroke-width="0.5" stroke-linecap="round" stroke-linejoin="round"/>
<path d="M99.9798 97.735C99.9798 96.4762 98.9593 95.4557 97.7004 95.4557C96.4416 95.4557 95.4211 96.4762 95.4211 97.735C95.4211 98.9939 96.4416 100.014 97.7004 100.014C98.9593 100.014 99.9798 98.9939 99.9798 97.735Z" fill="url(#paint33_linear_4_1313)" stroke="#6D4E85" stroke-width="0.5" stroke-linecap="round" stroke-linejoin="round"/>
<defs>
<filter id="filter0_f_4_1313" x="41.2664" y="47.0436" width="29.2758" height="29.2631" filterUnits="userSpaceOnUse" color-interpolation-filters="sRGB">
<feFlood flood-opacity="0" result="BackgroundImageFix"/>
<feBlend mode="normal" in="SourceGraphic" in2="BackgroundImageFix" result="shape"/>
<feGaussianBlur stdDeviation="3.95909" result="effect1_foregroundBlur_4_1313"/>
</filter>
<filter id="filter1_f_4_1313" x="9.31788" y="15.026" width="37.2014" height="37.2465" filterUnits="userSpaceOnUse" color-interpolation-filters="sRGB">
<feFlood flood-opacity="0" result="BackgroundImageFix"/>
<feBlend mode="normal" in="SourceGraphic" in2="BackgroundImageFix" result="shape"/>
<feGaussianBlur stdDeviation="3.95909" result="effect1_foregroundBlur_4_1313"/>
</filter>
<filter id="filter2_f_4_1313" x="42.7987" y="3.19437" width="24.1158" height="24.1082" filterUnits="userSpaceOnUse" color-interpolation-filters="sRGB">
<feFlood flood-opacity="0" result="BackgroundImageFix"/>
<feBlend mode="normal" in="SourceGraphic" in2="BackgroundImageFix" result="shape"/>
<feGaussianBlur stdDeviation="3.95909" result="effect1_foregroundBlur_4_1313"/>
</filter>
<radialGradient id="paint0_radial_4_1313" cx="0" cy="0" r="1" gradientUnits="userSpaceOnUse" gradientTransform="translate(79.0272 87.6207) rotate(-81.5234) scale(12.9012 13.7747)">
<stop stop-color="#BEDCDC"/>
<stop offset="0.5" stop-color="#8E9E9E" stop-opacity="0.741"/>
<stop offset="1" stop-color="#404F5C" stop-opacity="0.839"/>
</radialGradient>
<radialGradient id="paint1_radial_4_1313" cx="0" cy="0" r="1" gradientUnits="userSpaceOnUse" gradientTransform="translate(57.7839 61.976) rotate(-96.4476) scale(20.5833 21.8952)">
<stop stop-color="#BEDCDC"/>
<stop offset="0.5" stop-color="#8E9E9E" stop-opacity="0.741"/>
<stop offset="1" stop-color="#404F5C" stop-opacity="0.839"/>
</radialGradient>
<radialGradient id="paint2_radial_4_1313" cx="0" cy="0" r="1" gradientUnits="userSpaceOnUse" gradientTransform="translate(79.0272 87.6207) rotate(-81.5234) scale(12.9012 13.7747)">
<stop stop-color="#BEDCDC"/>
<stop offset="0.5" stop-color="#8E9E9E" stop-opacity="0.741"/>
<stop offset="1" stop-color="#404F5C" stop-opacity="0.839"/>
</radialGradient>
<linearGradient id="paint3_linear_4_1313" x1="48.7501" y1="27.0796" x2="96.5252" y2="112.88" gradientUnits="userSpaceOnUse">
<stop stop-color="#133E67"/>
<stop offset="1" stop-color="#174D81" stop-opacity="0.63"/>
</linearGradient>
<radialGradient id="paint4_radial_4_1313" cx="0" cy="0" r="1" gradientUnits="userSpaceOnUse" gradientTransform="translate(45.8251 26.5921) rotate(53.9333) scale(104.335 74.3342)">
<stop stop-color="#B499FF"/>
<stop offset="1" stop-color="#600880" stop-opacity="0.05"/>
</radialGradient>
<linearGradient id="paint5_linear_4_1313" x1="95.6464" y1="33.4085" x2="97.761" y2="38.739" gradientUnits="userSpaceOnUse">
<stop stop-color="#062C50"/>
<stop offset="1" stop-color="#134B80" stop-opacity="0"/>
</linearGradient>
<linearGradient id="paint6_linear_4_1313" x1="96.8267" y1="33.0253" x2="98.0901" y2="37.4005" gradientUnits="userSpaceOnUse">
<stop stop-color="#062C50"/>
<stop offset="1" stop-color="#134B80" stop-opacity="0"/>
</linearGradient>
<linearGradient id="paint7_linear_4_1313" x1="95.6464" y1="42.2877" x2="97.761" y2="47.6181" gradientUnits="userSpaceOnUse">
<stop stop-color="#062C50"/>
<stop offset="1" stop-color="#134B80" stop-opacity="0"/>
</linearGradient>
<linearGradient id="paint8_linear_4_1313" x1="96.8267" y1="41.9045" x2="98.0901" y2="46.2796" gradientUnits="userSpaceOnUse">
<stop stop-color="#062C50"/>
<stop offset="1" stop-color="#134B80" stop-opacity="0"/>
</linearGradient>
<linearGradient id="paint9_linear_4_1313" x1="53.6082" y1="35.6045" x2="53.622" y2="36.9576" gradientUnits="userSpaceOnUse">
<stop stop-color="#062C50"/>
<stop offset="1" stop-color="#134B80" stop-opacity="0"/>
</linearGradient>
<radialGradient id="paint10_radial_4_1313" cx="0" cy="0" r="1" gradientUnits="userSpaceOnUse" gradientTransform="translate(71.2011 36.081) rotate(90) scale(0.5 19.5229)">
<stop stop-color="#0F9CEB"/>
<stop offset="1" stop-color="#00A3FF" stop-opacity="0"/>
</radialGradient>
<linearGradient id="paint11_linear_4_1313" x1="53.3695" y1="44.4836" x2="53.3852" y2="45.8367" gradientUnits="userSpaceOnUse">
<stop stop-color="#062C50"/>
<stop offset="1" stop-color="#134B80" stop-opacity="0"/>
</linearGradient>
<radialGradient id="paint12_radial_4_1313" cx="0" cy="0" r="1" gradientUnits="userSpaceOnUse" gradientTransform="translate(68.7859 44.9601) rotate(90) scale(0.5 17.1077)">
<stop stop-color="#0F9CEB"/>
<stop offset="1" stop-color="#00A3FF" stop-opacity="0"/>
</radialGradient>
<linearGradient id="paint13_linear_4_1313" x1="53.4226" y1="53.3628" x2="53.4378" y2="54.7159" gradientUnits="userSpaceOnUse">
<stop stop-color="#062C50"/>
<stop offset="1" stop-color="#134B80" stop-opacity="0"/>
</linearGradient>
<radialGradient id="paint14_radial_4_1313" cx="0" cy="0" r="1" gradientUnits="userSpaceOnUse" gradientTransform="translate(69.323 53.8393) rotate(90) scale(0.5 17.6448)">
<stop stop-color="#0F9CEB"/>
<stop offset="1" stop-color="#00A3FF" stop-opacity="0"/>
</radialGradient>
<linearGradient id="paint15_linear_4_1313" x1="53.5553" y1="62.2419" x2="53.5694" y2="63.5951" gradientUnits="userSpaceOnUse">
<stop stop-color="#062C50"/>
<stop offset="1" stop-color="#134B80" stop-opacity="0"/>
</linearGradient>
<radialGradient id="paint16_radial_4_1313" cx="0" cy="0" r="1" gradientUnits="userSpaceOnUse" gradientTransform="translate(70.6652 62.7184) rotate(90) scale(0.5 18.987)">
<stop stop-color="#0F9CEB"/>
<stop offset="1" stop-color="#00A3FF" stop-opacity="0"/>
</radialGradient>
<linearGradient id="paint17_linear_4_1313" x1="53.5951" y1="71.1211" x2="53.6089" y2="72.4743" gradientUnits="userSpaceOnUse">
<stop stop-color="#062C50"/>
<stop offset="1" stop-color="#134B80" stop-opacity="0"/>
</linearGradient>
<radialGradient id="paint18_radial_4_1313" cx="0" cy="0" r="1" gradientUnits="userSpaceOnUse" gradientTransform="translate(71.0677 71.5977) rotate(90) scale(0.5 19.3895)">
<stop stop-color="#0F9CEB"/>
<stop offset="1" stop-color="#00A3FF" stop-opacity="0"/>
</radialGradient>
<linearGradient id="paint19_linear_4_1313" x1="53.6082" y1="80.0003" x2="53.622" y2="81.3534" gradientUnits="userSpaceOnUse">
<stop stop-color="#062C50"/>
<stop offset="1" stop-color="#134B80" stop-opacity="0"/>
</linearGradient>
<radialGradient id="paint20_radial_4_1313" cx="0" cy="0" r="1" gradientUnits="userSpaceOnUse" gradientTransform="translate(71.2011 80.4768) rotate(90) scale(0.5 19.5229)">
<stop stop-color="#0F9CEB"/>
<stop offset="1" stop-color="#00A3FF" stop-opacity="0"/>
</radialGradient>
<linearGradient id="paint21_linear_4_1313" x1="53.5553" y1="88.8794" x2="53.5694" y2="90.2326" gradientUnits="userSpaceOnUse">
<stop stop-color="#062C50"/>
<stop offset="1" stop-color="#134B80" stop-opacity="0"/>
</linearGradient>
<radialGradient id="paint22_radial_4_1313" cx="0" cy="0" r="1" gradientUnits="userSpaceOnUse" gradientTransform="translate(70.6652 89.356) rotate(90) scale(0.5 18.987)">
<stop stop-color="#0F9CEB"/>
<stop offset="1" stop-color="#00A3FF" stop-opacity="0"/>
</radialGradient>
<linearGradient id="paint23_linear_4_1313" x1="53.3894" y1="97.7586" x2="53.4049" y2="99.1117" gradientUnits="userSpaceOnUse">
<stop stop-color="#062C50"/>
<stop offset="1" stop-color="#134B80" stop-opacity="0"/>
</linearGradient>
<radialGradient id="paint24_radial_4_1313" cx="0" cy="0" r="1" gradientUnits="userSpaceOnUse" gradientTransform="translate(68.9872 98.2351) rotate(90) scale(0.5 17.309)">
<stop stop-color="#0F9CEB"/>
<stop offset="1" stop-color="#00A3FF" stop-opacity="0"/>
</radialGradient>
<linearGradient id="paint25_linear_4_1313" x1="95.6464" y1="51.1669" x2="97.761" y2="56.4973" gradientUnits="userSpaceOnUse">
<stop stop-color="#062C50"/>
<stop offset="1" stop-color="#134B80" stop-opacity="0"/>
</linearGradient>
<linearGradient id="paint26_linear_4_1313" x1="96.8267" y1="50.7836" x2="98.0901" y2="55.1588" gradientUnits="userSpaceOnUse">
<stop stop-color="#062C50"/>
<stop offset="1" stop-color="#134B80" stop-opacity="0"/>
</linearGradient>
<linearGradient id="paint27_linear_4_1313" x1="95.6464" y1="60.0461" x2="97.761" y2="65.3765" gradientUnits="userSpaceOnUse">
<stop stop-color="#062C50"/>
<stop offset="1" stop-color="#134B80" stop-opacity="0"/>
</linearGradient>
<linearGradient id="paint28_linear_4_1313" x1="95.6464" y1="68.9252" x2="97.761" y2="74.2556" gradientUnits="userSpaceOnUse">
<stop stop-color="#062C50"/>
<stop offset="1" stop-color="#134B80" stop-opacity="0"/>
</linearGradient>
<linearGradient id="paint29_linear_4_1313" x1="95.6464" y1="77.8044" x2="97.761" y2="83.1348" gradientUnits="userSpaceOnUse">
<stop stop-color="#062C50"/>
<stop offset="1" stop-color="#134B80" stop-opacity="0"/>
</linearGradient>
<linearGradient id="paint30_linear_4_1313" x1="96.8267" y1="77.4212" x2="98.0901" y2="81.7963" gradientUnits="userSpaceOnUse">
<stop stop-color="#062C50"/>
<stop offset="1" stop-color="#134B80" stop-opacity="0"/>
</linearGradient>
<linearGradient id="paint31_linear_4_1313" x1="95.6464" y1="86.6835" x2="97.761" y2="92.0139" gradientUnits="userSpaceOnUse">
<stop stop-color="#062C50"/>
<stop offset="1" stop-color="#134B80" stop-opacity="0"/>
</linearGradient>
<linearGradient id="paint32_linear_4_1313" x1="96.8267" y1="86.3003" x2="98.0901" y2="90.6755" gradientUnits="userSpaceOnUse">
<stop stop-color="#062C50"/>
<stop offset="1" stop-color="#134B80" stop-opacity="0"/>
</linearGradient>
<linearGradient id="paint33_linear_4_1313" x1="95.6464" y1="95.5627" x2="97.761" y2="100.893" gradientUnits="userSpaceOnUse">
<stop stop-color="#062C50"/>
<stop offset="1" stop-color="#134B80" stop-opacity="0"/>
</linearGradient>
</defs>
</svg>
